<svg xmlns="http://www.w3.org/2000/svg" width="24" height="24" fill="none" viewBox="0 0 24 24" id="tictactoe">
  <path fill="#00c6ff" fill-rule="evenodd" d="M1.5 6C1.5 3.51472 3.51472 1.5 6 1.5H18C20.4853 1.5 22.5 3.51472 22.5 6V18C22.5 20.4853 20.4853 22.5 18 22.5H6C3.51472 22.5 1.5 20.4853 1.5 18V6ZM6 2.5C4.067 2.5 2.5 4.067 2.5 6V18C2.5 19.933 4.067 21.5 6 21.5H18C19.933 21.5 21.5 19.933 21.5 18V6C21.5 4.067 19.933 2.5 18 2.5H6Z" clip-rule="evenodd" class="color000000 svgShape"></path>
  <path fill="#00c6ff" fill-rule="evenodd" d="M12 1.5C12.2761 1.5 12.5 1.72386 12.5 2V22C12.5 22.2761 12.2761 22.5 12 22.5C11.7239 22.5 11.5 22.2761 11.5 22V2C11.5 1.72386 11.7239 1.5 12 1.5Z" clip-rule="evenodd" class="color000000 svgShape"></path>
  <path fill="#00c6ff" fill-rule="evenodd" d="M1.5 12C1.5 11.7239 1.72386 11.5 2 11.5L22 11.5C22.2761 11.5 22.5 11.7239 22.5 12 22.5 12.2761 22.2761 12.5 22 12.5L2 12.5C1.72386 12.5 1.5 12.2761 1.5 12zM17 5.5C16.1716 5.5 15.5 6.17157 15.5 7 15.5 7.82843 16.1716 8.5 17 8.5 17.8284 8.5 18.5 7.82843 18.5 7 18.5 6.17157 17.8284 5.5 17 5.5zM14.5 7C14.5 5.61929 15.6193 4.5 17 4.5 18.3807 4.5 19.5 5.61929 19.5 7 19.5 8.38071 18.3807 9.5 17 9.5 15.6193 9.5 14.5 8.38071 14.5 7zM7 15.5C6.17157 15.5 5.5 16.1716 5.5 17 5.5 17.8284 6.17157 18.5 7 18.5 7.82843 18.5 8.5 17.8284 8.5 17 8.5 16.1716 7.82843 15.5 7 15.5zM4.5 17C4.5 15.6193 5.61929 14.5 7 14.5 8.38071 14.5 9.5 15.6193 9.5 17 9.5 18.3807 8.38071 19.5 7 19.5 5.61929 19.5 4.5 18.3807 4.5 17zM14.6464 14.6464C14.8417 14.4512 15.1583 14.4512 15.3536 14.6464L19.3536 18.6464C19.5488 18.8417 19.5488 19.1583 19.3536 19.3536 19.1583 19.5488 18.8417 19.5488 18.6464 19.3536L14.6464 15.3536C14.4512 15.1583 14.4512 14.8417 14.6464 14.6464zM4.64645 4.64645C4.84171 4.45118 5.15829 4.45118 5.35355 4.64645L9.35355 8.64645C9.54882 8.84171 9.54882 9.15829 9.35355 9.35355 9.15829 9.54882 8.84171 9.54882 8.64645 9.35355L4.64645 5.35355C4.45118 5.15829 4.45118 4.84171 4.64645 4.64645z" clip-rule="evenodd" class="color000000 svgShape"></path>
  <path fill="#00c6ff" fill-rule="evenodd" d="M19.3536 14.6464C19.1583 14.4512 18.8417 14.4512 18.6464 14.6464L14.6464 18.6464C14.4512 18.8417 14.4512 19.1583 14.6464 19.3536 14.8417 19.5488 15.1583 19.5488 15.3536 19.3536L19.3536 15.3536C19.5488 15.1583 19.5488 14.8417 19.3536 14.6464zM9.35355 4.64645C9.15829 4.45118 8.84171 4.45118 8.64645 4.64645L4.64645 8.64645C4.45118 8.84171 4.45118 9.15829 4.64645 9.35355 4.84171 9.54882 5.15829 9.54882 5.35355 9.35355L9.35355 5.35355C9.54882 5.15829 9.54882 4.84171 9.35355 4.64645z" clip-rule="evenodd" class="color000000 svgShape"></path>
</svg>
